<?xml version="1.0" encoding="UTF-8"?>
<svg width="1000px" height="1000px" viewBox="0 0 1000 1000" version="1.1" xmlns="http://www.w3.org/2000/svg" xmlns:xlink="http://www.w3.org/1999/xlink">
    <title>Nora</title>
    <g id="圆形" stroke="none" stroke-width="1" fill="none" fill-rule="evenodd">
        <g id="Nora">
            <circle id="椭圆形" fill="#5000FF" cx="500" cy="500" r="500"></circle>
            <g id="Nora-白银白" transform="translate(175.000000, 175.000000)">
                <g id="雪花" transform="translate(49.228355, 0.000000)" fill="#D6D6D6">
                    <path d="M340.771645,650 L340.771645,650 L210.771645,650 L210.771,649.999 L340.771645,650 Z M340.771645,0 L340.771645,168.075 L459.619408,49.2283553 L551.543289,141.152237 L432.694645,260 L600.771645,260 L600.771645,390 L432.695645,390 L551.543289,508.847763 L459.619408,600.771645 L340.771645,481.924 L340.771645,482.04 L210.771,482.039 L210.771645,481.923 L210.655,482.039 L118.731645,482.04 L118.731,390.115 L118.846645,390 L118.731,390 L118.731,260 L118.847645,260 L-1.56319402e-13,141.152237 L91.9238816,49.2283553 L210.771645,168.076 L210.771645,0 L340.771645,0 Z"></path>
                </g>
                <g id="箭头" transform="translate(0.000000, 260.000000)" fill="#FFFFFF">
                    <path d="M390,390 L260,390 L260,221.922 L141.152237,340.771645 L49.2283553,248.847763 L168.074,130 L0,130 L0,0 L390,0 L390,390 Z"></path>
                </g>
            </g>
        </g>
    </g>
</svg>