<?xml version="1.0" encoding="UTF-8"?>
<svg width="2500px" height="2500px" viewBox="0 0 2500 2500" version="1.1" xmlns="http://www.w3.org/2000/svg" xmlns:xlink="http://www.w3.org/1999/xlink">
    <title>Swch-白蒂芙尼蓝</title>
    <g id="A" stroke="none" stroke-width="1" fill="none" fill-rule="evenodd">
        <g id="Swch-白蒂芙尼蓝" transform="translate(-1250.000000, -1250.000000)">
            <g transform="translate(1250.000000, 1250.000000)">
                <g id="雪花" transform="translate(189.339828, 0.000000)" fill="#95D6D0">
                    <path d="M1310.66017,1854 L810.66,1854 L810.660172,1853.553 L810.213,1854 L456.660172,1854 L456.66,1500.445 L457.105172,1500 L456.66,1500 L456.660172,1000 L457.106172,1000 L-1.70530257e-13,542.893219 L353.553391,189.339828 L810.660172,646.446 L810.660172,0 L1310.66017,0 L1310.66017,646.445 L1767.76695,189.339828 L2121.32034,542.893219 L1664.21317,1000 L2310.66017,1000 L2310.66017,1500 L1664.21417,1500 L2121.32034,1957.10678 L1767.76695,2310.66017 L1310.66017,1853.554 L1310.66017,1854 Z"></path>
                </g>
                <g id="箭头" transform="translate(0.000000, 1000.000000)" fill="#FFFFFF">
                    <path d="M1500,1500 L1000,1500 L1000,853.552 L542.893219,1310.66017 L189.339828,957.106781 L646.445,500 L0,500 L0,0 L1500,0 L1500,1500 Z"></path>
                </g>
            </g>
        </g>
    </g>
</svg>